<svg width="17" height="17" viewBox="0 0 17 17" fill="none" xmlns="http://www.w3.org/2000/svg">
<g clip-path="url(#clip0_2103_1444)">
<path d="M4.10588 8.5L2.3116 10.2967L0.5 8.5L2.31093 6.68733L4.10588 8.5ZM8.49234 4.10933L11.5827 7.20267L13.3943 5.39067L8.49234 0.5L3.59037 5.40667L5.40197 7.21867L8.49234 4.10933ZM14.6738 6.68733L12.8788 8.5L14.6897 10.3127L16.5 8.5L14.6738 6.68733ZM8.49234 12.8907L5.40197 9.78133L3.59037 11.594L8.49234 16.5L13.3943 11.5933L11.5827 9.78133L8.49234 12.8907ZM8.49234 10.2973L10.3033 8.484L8.49234 6.688L6.68141 8.5L8.49234 10.2967V10.2973Z" fill="#F0B90B"/>
</g>
<defs>
<clipPath id="clip0_2103_1444">
<rect width="16" height="16" fill="white" transform="translate(0.5 0.5)"/>
</clipPath>
</defs>
</svg>
