<svg width="33" height="20" viewBox="0 0 33 20" fill="none" xmlns="http://www.w3.org/2000/svg">
<path d="M1.83412 19.6567C2.35756 19.6567 2.81557 19.2866 2.92462 18.7641C3.92787 13.8004 9.7075 11.6887 9.77293 11.667C10.3618 11.4493 10.6671 10.8179 10.449 10.2301C10.2527 9.64232 9.59845 9.33753 9.03139 9.55523C8.74786 9.66408 1.98679 12.1024 0.743629 18.3287C0.61277 18.9382 1.00535 19.526 1.61603 19.6349C1.70326 19.6349 1.76869 19.6567 1.83412 19.6567Z" fill="#10101A"/>
<path d="M20.0888 6.13738L22.3353 5.98499V6.00676C22.3353 5.96322 22.3135 5.0924 23.1859 4.26513C24.1673 3.32901 26.3701 2.3058 31.3427 2.65413C31.9534 2.69767 32.4987 2.24049 32.5423 1.60915C32.5859 0.999579 32.1279 0.455321 31.4954 0.41178C26.7627 0.0852254 23.404 0.847188 21.5501 2.71944C20.0016 4.26513 20.067 5.96322 20.0888 6.13738Z" fill="#10101A"/>
</svg>
