<svg width="198" height="148" viewBox="0 0 198 148" fill="none" xmlns="http://www.w3.org/2000/svg">
<path d="M114.269 147.215C115.272 147.215 116.231 147.172 117.148 147.085C121.509 146.693 127.136 141.882 134.312 132.39C139.852 125.075 146.307 114.995 153.461 102.434C164.759 82.6228 174.333 62.7247 175.707 59.8292C179.088 58.1964 202.293 46.4405 196.557 33.1388C194.66 28.7412 190.211 23.1027 184.649 18.052C180.004 13.8285 172.414 8.01584 162.578 4.24957C156.514 1.92015 150.451 0.722778 144.519 0.657467C137.801 0.592156 131.28 1.98546 125.108 4.8156C103.974 14.5034 96.0137 27.3479 90.2123 36.7309C87.0062 41.9122 84.4545 46.0051 80.725 48.2909C74.4001 52.1661 65.9379 51.2082 58.5007 50.3591C53.2663 49.7713 48.3155 49.2053 44.8041 50.4462C40.3112 52.0572 38.5665 56.3242 36.9089 60.4823C35.3822 64.2921 33.921 67.8842 30.4532 68.9945C27.5961 69.9089 24.1937 70.0613 20.5733 70.2354C14.4447 70.5184 8.09803 70.8232 4.04139 75.0031C1.27154 77.8551 0.202847 82.6881 1.18429 87.9565C2.14393 93.1161 5.00103 98.428 9.47206 103.305C14.8373 109.161 22.4271 114.407 32.0235 118.87C52.1758 128.253 67.4646 134.741 80.2016 139.269C95.0105 144.625 106.221 147.215 114.269 147.215ZM144.017 2.89981C144.17 2.89981 144.323 2.89981 144.497 2.89981C150.146 2.96512 155.969 4.11895 161.771 6.33953C178.76 12.8489 191.345 26.7165 194.507 34.0314C196.645 38.9732 194.006 44.4594 186.677 50.3374C180.985 54.9091 174.486 57.9352 174.42 57.9787C174.18 58.0876 173.984 58.2835 173.875 58.523C173.766 58.7407 163.646 80.0974 151.52 101.367C144.41 113.841 138.02 123.834 132.545 131.062C127.943 137.136 121.488 144.451 116.951 144.864C116.122 144.929 115.228 144.973 114.312 144.973C95.7738 144.973 61.3142 130.082 32.9395 116.868C23.6049 112.535 16.2767 107.463 11.1078 101.824C6.9203 97.2524 4.23769 92.3323 3.36529 87.5646C2.53652 83.0799 3.40892 78.8783 5.63353 76.5924C9.07949 73.0438 14.9682 72.7608 20.6605 72.4995C24.2592 72.3254 27.9887 72.1512 31.1293 71.1498C35.6003 69.713 37.3233 65.4677 38.9809 61.3531C40.5294 57.4998 41.9906 53.8641 45.5456 52.6015C48.5772 51.5347 53.2663 52.0572 58.239 52.6232C66.0469 53.5158 74.9235 54.5173 81.9027 50.2503C86.0902 47.6814 88.9037 43.1749 92.1316 37.95C98.1075 28.3058 105.545 16.2886 126.068 6.88378C131.76 4.24957 137.823 2.89981 144.017 2.89981Z" fill="#10101A"/>
</svg>
