<svg width="335" height="182" viewBox="0 0 335 182" fill="none" xmlns="http://www.w3.org/2000/svg">
<mask id="mask0_2157_107" style="mask-type:luminance" maskUnits="userSpaceOnUse" x="0" y="0" width="335" height="182">
<path d="M0.109039 0H335V181.804H0.109039V0Z" fill="white"/>
</mask>
<g mask="url(#mask0_2157_107)">
<path d="M179.343 62.742C179.343 62.742 206.954 48.1341 201.589 33.6133C196.224 19.1142 164.316 -12.4527 130.532 5.24655C96.7487 22.9458 95.0694 47.3068 83.2702 55.3618C71.4711 63.4169 54.3503 55.7319 45.9317 59.237C37.513 62.742 38.6908 77.3281 30.403 80.4848C22.1371 83.6197 9.87989 80.6807 3.42416 87.8432C-3.03157 95.0056 -2.92251 117.952 30.3376 133.757C63.5977 149.562 98.4717 164.366 116.487 161.971C134.48 159.576 179.343 62.742 179.343 62.742Z" fill="#010101"/>
<path d="M142.659 84.7516C133.346 83.6413 114.938 82.0521 105.233 81.2248C101.089 80.8765 96.9015 81.486 93.0194 82.9882L78.2323 88.7356C75.6369 89.737 73.2378 91.1303 71.0568 92.8719L22.2027 131.928C11.6903 140.331 8.87682 155.113 15.5725 166.76C20.4361 175.251 29.4872 180.498 39.2798 180.498H237.728L201.415 111.986C195.046 99.9691 181.698 91.2174 165.69 88.5832L142.659 84.7516Z" fill="#EBB8B8"/>
<path d="M139.692 116.079L134.087 112.64C123.291 106.021 119.3 92.3062 124.862 80.9421L139.452 51.1167L168.939 69.2078L147.064 113.946C145.712 116.667 142.31 117.669 139.692 116.079Z" fill="white"/>
<path d="M142.419 117.951C143.007 117.951 143.596 117.864 144.163 117.712C145.865 117.211 147.282 116.014 148.067 114.425L169.943 69.6865C170.204 69.164 170.008 68.5545 169.528 68.2497L140.02 50.1585C139.758 49.9844 139.431 49.9408 139.125 50.0279C138.82 50.115 138.58 50.3327 138.427 50.6157L123.837 80.4411C121.023 86.1884 120.456 92.7195 122.244 98.8588C124.033 104.998 128.024 110.223 133.477 113.576L139.082 117.015C140.107 117.647 141.263 117.951 142.419 117.951ZM167.478 69.6212L146.061 113.445C145.559 114.49 144.665 115.23 143.553 115.557C142.44 115.883 141.285 115.731 140.303 115.121L134.698 111.682C129.725 108.634 126.083 103.866 124.447 98.2492C122.812 92.6542 123.335 86.6674 125.887 81.4207L139.932 52.7057L167.478 69.6212Z" fill="#10101A"/>
<path d="M145.101 73.4747C163.225 79.2439 178.514 72.212 178.514 72.212C182.44 70.4922 185.908 67.858 188.612 64.5271C197.816 53.1848 196.136 36.5522 184.861 27.2563L169.463 14.586C160.826 7.46706 148.634 6.53093 138.994 12.2348L139.082 12.6266C143.117 30.1517 139.932 48.5477 130.271 63.6998L145.101 73.4747Z" fill="white"/>
<path d="M159.91 76.8491C163.313 76.8491 166.344 76.5226 168.787 76.109C174.85 75.0857 178.689 73.3659 178.972 73.2353C183.051 71.4501 186.693 68.6853 189.485 65.2456C194.108 59.52 196.267 52.3357 195.526 45.0209C194.784 37.7061 191.251 31.0879 185.559 26.4073L170.183 13.7152C161.197 6.31329 148.438 5.33362 138.428 11.2552C138.013 11.4946 137.795 11.9953 137.904 12.4743L137.991 12.8662C139.954 21.4437 140.216 30.1735 138.711 38.8381C137.206 47.5027 134.066 55.6666 129.333 63.0903C129.006 63.6128 129.158 64.3094 129.682 64.636C130.205 64.9625 130.903 64.8101 131.23 64.2877C136.116 56.6245 139.387 48.1776 140.936 39.23C142.462 30.413 142.244 21.509 140.281 12.8008C149.376 7.79367 160.717 8.81688 168.765 15.4568L184.141 28.1489C189.375 32.4594 192.625 38.5334 193.301 45.2604C193.977 51.9874 192.014 58.5838 187.74 63.8523C185.166 67.0307 181.829 69.5779 178.056 71.2106H178.034C177.882 71.2759 162.898 77.9812 145.429 72.4298C144.84 72.2338 144.207 72.5604 144.011 73.1482C143.815 73.736 144.142 74.3673 144.731 74.5633C150.205 76.2831 155.417 76.8491 159.91 76.8491Z" fill="#10101A"/>
<path d="M128.155 71.385C122 71.385 117.01 66.4044 117.01 60.2604C117.01 54.1164 122 49.1357 128.155 49.1357C134.31 49.1357 139.3 54.1164 139.3 60.2604C139.3 66.4044 134.31 71.385 128.155 71.385Z" fill="white"/>
<path d="M131.514 60.347C131.841 60.347 132.168 60.1946 132.386 59.9334C132.779 59.4545 132.691 58.7578 132.212 58.3659C131.972 58.17 126.345 53.7506 121.83 55.993C121.285 56.276 121.045 56.9291 121.328 57.4951C121.612 58.0394 122.266 58.2789 122.833 57.9958C124.447 57.1903 126.476 57.7781 127.893 58.3877C129.551 59.1279 130.794 60.1076 130.816 60.1076C131.034 60.2817 131.274 60.347 131.514 60.347Z" fill="#10101A"/>
<path d="M167.478 63.3079C168.067 63.3079 168.678 63.2209 169.31 63.0467C175.635 61.218 175.526 49.8974 175.504 49.3967C175.504 49.0266 175.308 48.7 175.003 48.4823C174.697 48.2864 174.305 48.2429 173.978 48.3735L158.144 54.491C157.838 54.5998 157.598 54.8611 157.489 55.1658C157.38 55.4706 157.424 55.819 157.598 56.102C157.795 56.4285 162.004 63.3079 167.478 63.3079ZM173.214 51.073C172.996 54.4474 171.949 59.9335 168.678 60.8914C166.78 61.4357 164.709 60.652 162.484 58.5838C161.568 57.713 160.805 56.7768 160.281 56.0802L173.214 51.073Z" fill="#10101A"/>
<path d="M174.414 28.8238C174.261 28.0183 174.872 27.2346 175.657 27.1039C176.726 26.908 177.882 27.2128 178.732 27.8877C178.798 27.953 178.863 28.0183 178.929 28.0836C179.234 28.1707 179.496 28.3013 179.736 28.519C180.084 28.8238 180.39 29.1721 180.543 29.6293C180.717 30.1735 180.782 30.7396 180.586 31.2838C180.368 31.8716 179.932 32.307 179.387 32.6118C178.95 32.8513 178.449 32.9166 177.947 32.9166C177.009 32.9166 176.115 32.4159 175.526 31.7192C174.872 30.8702 174.61 29.8252 174.414 28.8238Z" fill="#010101"/>
<path d="M157.686 36.5086C157.729 36.0297 158.013 35.6378 158.405 35.3984C158.558 35.2895 158.754 35.2024 158.951 35.1807C159.212 35.1371 159.474 35.1807 159.714 35.2677C160.586 35.4854 161.393 36.0732 161.939 36.7699C162.157 37.0529 162.353 37.3795 162.506 37.706C162.615 37.8584 162.68 38.0326 162.767 38.185C163.051 38.8163 163.182 39.6218 163.029 40.3185C163.007 40.5797 162.898 40.8192 162.745 41.0369C162.636 41.211 162.484 41.3417 162.287 41.4287C161.873 41.69 161.437 41.7118 160.979 41.5594C158.885 40.9063 157.489 38.6639 157.686 36.5086Z" fill="#010101"/>
<path d="M172.996 39.7744C173.498 39.7744 173.956 39.426 174.087 38.9253C174.239 38.3157 173.869 37.728 173.258 37.5756C173.236 37.5756 169.31 36.3782 166.192 27.6701C165.973 27.0823 165.341 26.7775 164.752 26.9952C164.163 27.2129 163.858 27.8442 164.076 28.432C165.559 32.5684 167.413 35.7033 169.572 37.7497C171.273 39.3607 172.582 39.7091 172.735 39.7526C172.822 39.7744 172.909 39.7744 172.996 39.7744Z" fill="#10101A"/>
<path d="M65.2552 150.302C65.4079 150.302 65.5824 150.259 65.7351 150.193L103.008 132.821C103.575 132.559 103.815 131.884 103.553 131.34C103.292 130.774 102.616 130.535 102.07 130.796L64.7972 148.169C64.2302 148.43 63.9903 149.105 64.252 149.649C64.4265 150.063 64.819 150.302 65.2552 150.302Z" fill="white"/>
<path d="M157.969 90.1942C158.362 86.4715 160.281 83.2277 163.662 80.5282C173.127 72.9739 182.527 67.7055 185.035 66.0727L181.546 52.6839C181.066 51.8349 178.558 43.7581 179.299 43.9976C179.779 44.15 181.807 39.883 182.287 39.7741C184.577 39.3605 188.241 50.9423 190.728 57.6258C190.858 52.0308 188.503 37.793 188.067 33.5478C187.434 27.1473 195.809 24.6873 196.18 24.5784C196.442 24.5131 196.703 24.5567 196.9 24.6873C197.118 24.8397 197.249 25.0574 197.271 25.3186L197.62 29.2155C201.981 22.0095 208.219 24.5784 208.285 24.6002C208.677 24.7744 208.873 25.188 208.786 25.6016L201.305 56.6461C201.218 57.038 200.847 57.2992 200.455 57.2992C200.389 57.2992 200.324 57.2992 200.259 57.2775C200.193 57.2557 200.128 57.2122 200.062 57.1904L200.738 64.9842C200.76 65.2019 200.695 65.4196 200.564 65.5937L182.353 88.888L183.465 98.3145C183.509 98.75 183.225 99.1636 182.811 99.2507L163.225 103.844C163.16 103.866 163.094 103.866 163.029 103.866C162.767 103.866 162.527 103.757 162.353 103.539C162.157 103.343 157.228 97.226 157.969 90.1942Z" fill="white"/>
<path d="M217.554 153.633C217.379 150.999 182.353 88.9102 182.353 88.9102L161.393 98.4238L186.736 172.008C186.736 172.029 219.582 182.675 217.554 153.633Z" fill="white"/>
<path d="M184.534 165.498C184.664 165.498 184.773 165.476 184.904 165.433C185.493 165.237 185.799 164.584 185.602 164.018L164.098 102.691C164.054 102.56 163.989 102.451 163.901 102.342C163.858 102.277 159.278 96.595 159.932 90.3905C160.281 87.2338 161.939 84.4254 164.883 82.0742C176.202 73.0178 185.428 67.2486 185.515 67.2051C185.929 66.9439 186.126 66.4431 186.017 65.986L181.284 47.8077C180.804 46.0008 180.826 44.2156 181.349 42.6482C181.655 41.712 182.113 40.9936 182.702 40.5582C184.076 43.6278 188.219 54.0993 190.815 60.8046C191.033 61.3706 191.687 61.6754 192.254 61.436C192.821 61.2183 193.127 60.5651 192.887 59.9991C192.865 59.9556 190.771 54.5783 188.677 49.2663C187.434 46.1532 186.431 43.6714 185.689 41.908C185.253 40.8412 184.904 40.0357 184.643 39.4697C184.25 38.6206 183.814 37.6627 182.789 37.9893C181.109 38.5553 179.866 39.9269 179.19 41.9515C178.536 43.9326 178.514 46.1532 179.081 48.3738L183.639 65.7465C181.262 67.2704 173.149 72.6259 163.487 80.3326C160.063 83.0757 158.1 86.3848 157.707 90.1728C157.009 96.7474 161.219 102.538 162.048 103.605L183.487 164.758C183.639 165.193 184.076 165.498 184.534 165.498Z" fill="#010101"/>
<path d="M216.79 154.765C216.965 154.765 217.161 154.722 217.314 154.635C217.859 154.33 218.055 153.655 217.772 153.111L182.789 88.7795L200.76 65.7901C200.935 65.5724 201.022 65.2894 201 65.0063L197.554 25.3408C197.532 25.0142 197.358 24.7095 197.074 24.5135C196.791 24.3176 196.464 24.274 196.136 24.3611C195.766 24.47 187.173 26.9953 187.849 33.5917C188.416 39.2085 188.263 53.4027 188.263 53.5334C188.263 54.1429 188.743 54.6654 189.375 54.6654C189.986 54.6654 190.509 54.1865 190.509 53.5551C190.509 52.9673 190.662 39.0996 190.073 33.374C189.724 29.9126 193.41 27.8444 195.46 26.9953L198.754 64.7669L180.586 87.974C180.302 88.3224 180.281 88.8013 180.477 89.1932L215.809 154.156C216.005 154.548 216.398 154.765 216.79 154.765Z" fill="#010101"/>
<path d="M199.713 59.6942C200.215 59.6942 200.673 59.3458 200.804 58.8451L209.048 25.6889C209.179 25.1229 208.873 24.5351 208.306 24.3609C208.175 24.3174 204.817 23.2288 201.502 25.014C199.037 26.342 197.292 28.8891 196.354 32.5466C196.202 33.1344 196.551 33.7657 197.161 33.9181C197.75 34.0705 198.383 33.7222 198.535 33.1126C199.321 30.0647 200.695 28.0183 202.592 26.9951C204.097 26.1896 205.624 26.1678 206.583 26.2985L198.601 58.3226C198.448 58.9322 198.819 59.52 199.408 59.6724C199.517 59.6942 199.626 59.6942 199.713 59.6942Z" fill="#010101"/>
<path d="M72.1255 150.476C72.1473 150.237 72.2563 150.041 72.4526 149.889C72.6271 149.736 72.867 149.671 73.1069 149.714L131.601 157.16C134.175 153.633 138.624 147.907 146.257 138.416C147.391 137.001 149.071 136.195 150.881 136.195H151.775L152.473 135.302C153.913 133.474 156.312 132.646 158.624 133.212L160.303 131.819C162.44 130.034 165.603 129.99 167.805 131.732L168.394 132.211C168.416 132.211 168.438 132.211 168.46 132.233L185.362 138.546C185.537 138.612 185.69 138.742 185.777 138.895L197.576 157.29C197.772 157.617 197.75 158.031 197.511 158.314C196.704 159.272 194.915 160.556 192.582 160.556C191.556 160.556 190.422 160.317 189.223 159.663C187.98 159.01 186.976 158.314 186.126 157.639L189.572 166.347C189.746 166.782 189.55 167.261 189.114 167.457C188.656 167.653 185.602 168.981 182.942 168.981C181.96 168.981 181.044 168.785 180.324 168.306C179.343 168.959 178.013 169.525 176.595 169.525C175.461 169.525 174.283 169.155 173.171 168.154C172.32 167.392 171.535 166.478 170.837 165.563C170.815 165.803 170.728 166.042 170.532 166.195C169.768 166.782 168.634 167.414 167.457 167.697C167.435 167.718 167.435 167.762 167.413 167.784C167.108 168.176 159.627 177.145 153.193 178.429C145.996 179.866 135.614 179.888 135.178 179.888H70.0972C69.8572 179.888 69.6173 179.779 69.4647 179.605C69.2902 179.431 69.2248 179.191 69.2466 178.93L72.1255 150.476Z" fill="white"/>
<path d="M131.732 159.163C132.277 159.163 132.779 158.749 132.844 158.183C132.931 157.574 132.495 157.008 131.884 156.942L73.1286 149.475C72.518 149.388 71.9509 149.823 71.8854 150.433C71.7982 151.042 72.2344 151.608 72.8451 151.674L131.601 159.141C131.645 159.163 131.688 159.163 131.732 159.163Z" fill="#010101"/>
<path d="M182.941 169.242C185.668 169.242 188.743 167.914 189.223 167.697C189.768 167.457 190.03 166.826 189.812 166.26L181.349 144.925C180.412 142.53 178.841 140.418 176.857 138.807L167.936 131.558C165.624 129.751 162.353 129.795 160.107 131.645L158.536 132.951C156.224 132.407 153.738 133.256 152.255 135.15L151.622 135.934H150.859C148.962 135.934 147.217 136.783 146.017 138.241C127.719 160.97 127.719 162.298 127.719 162.929C127.719 163.539 128.22 164.039 128.831 164.039C129.398 164.039 129.878 163.626 129.943 163.081C130.489 161.623 137.468 152.457 147.762 139.656C148.525 138.72 149.638 138.176 150.837 138.176H152.146C152.495 138.176 152.822 138.024 153.018 137.741L153.978 136.522C155.003 135.215 156.77 134.693 158.34 135.215L158.405 135.237C158.776 135.368 159.169 135.281 159.474 135.041L161.502 133.365C162.92 132.167 165.036 132.146 166.497 133.3L175.395 140.527C177.096 141.899 178.427 143.706 179.212 145.752L187.26 166.064C185.144 166.848 182.374 167.435 181.328 166.652C180.826 166.282 180.128 166.39 179.757 166.869C179.386 167.37 179.496 168.067 179.975 168.437C180.826 169.025 181.851 169.242 182.941 169.242Z" fill="#010101"/>
<path d="M176.617 169.787C178.623 169.787 180.477 168.676 181.459 167.762C181.786 167.457 181.917 166.978 181.742 166.543L176.442 152.196C175.33 149.17 173.629 146.449 171.404 144.098L164.796 137.109C164.381 136.652 163.662 136.63 163.204 137.066C162.746 137.479 162.724 138.198 163.16 138.655L169.768 145.643C171.775 147.777 173.302 150.237 174.327 152.98L179.343 166.565C178.362 167.24 176.29 168.285 174.523 166.695C171.557 164.018 169.332 159.337 169.31 159.293C169.049 158.727 168.373 158.488 167.827 158.749C167.26 159.01 167.02 159.685 167.282 160.229C167.369 160.447 169.725 165.346 173.018 168.35C174.196 169.417 175.439 169.787 176.617 169.787Z" fill="#010101"/>
<path d="M166.3 168.111C166.933 168.111 167.587 167.98 168.285 167.719C169.616 167.24 170.662 166.434 170.706 166.412C171.077 166.129 171.229 165.651 171.099 165.215L168.569 156.725C167.522 153.22 165.515 150.063 162.767 147.646C157.031 142.574 156.399 142.247 156.115 142.117C155.57 141.834 154.894 142.073 154.61 142.617C154.327 143.162 154.567 143.837 155.112 144.12C155.286 144.229 156.268 144.882 161.284 149.323C163.705 151.478 165.493 154.265 166.41 157.378L168.7 165.063C167.762 165.607 166.017 166.412 165.101 165.389C163.138 163.147 158.296 156.616 158.253 156.551C158.187 156.463 158.1 156.376 158.013 156.311L151.971 152.001C151.47 151.652 150.772 151.761 150.401 152.262C150.052 152.762 150.161 153.459 150.663 153.829L156.573 158.031C157.315 159.032 161.546 164.714 163.443 166.87C164.185 167.675 165.166 168.111 166.3 168.111Z" fill="#010101"/>
<path d="M70.1188 180.149H135.2C135.636 180.149 146.039 180.127 153.28 178.691C159.801 177.384 167.696 168.35 168.023 167.98C168.438 167.522 168.372 166.804 167.914 166.412C167.456 165.998 166.737 166.064 166.344 166.521C166.257 166.608 158.623 175.36 152.866 176.514C145.865 177.907 135.33 177.929 135.221 177.929H70.1406C69.5299 177.929 69.0283 178.429 69.0283 179.039C68.9847 179.648 69.4863 180.149 70.1188 180.149Z" fill="#010101"/>
<path d="M192.56 160.817C194.981 160.817 196.856 159.468 197.685 158.488C197.99 158.118 198.034 157.574 197.772 157.16L185.973 138.764C185.842 138.568 185.668 138.416 185.45 138.329L169.616 132.015C169.049 131.776 168.394 132.059 168.154 132.647C167.914 133.213 168.198 133.866 168.787 134.105L184.294 140.288L195.417 157.617C194.523 158.314 192.669 159.272 190.182 157.944C186.191 155.81 184.577 153.198 184.577 153.176C184.25 152.654 183.574 152.479 183.029 152.784C182.505 153.111 182.331 153.786 182.636 154.33C182.723 154.461 184.577 157.508 189.114 159.925C190.335 160.556 191.513 160.817 192.56 160.817Z" fill="#010101"/>
<path d="M152.037 161.471C152.408 161.471 152.778 161.275 152.996 160.926C154.654 158.205 155.374 157.487 155.526 157.334C155.919 157.16 156.181 156.768 156.181 156.311C156.181 155.701 155.679 155.201 155.068 155.201C154.567 155.201 153.869 155.201 151.077 159.772C150.75 160.295 150.924 160.992 151.448 161.318C151.644 161.405 151.84 161.471 152.037 161.471Z" fill="#010101"/>
<path d="M70.8387 151.282C71.4057 151.282 71.9074 150.847 71.951 150.259C71.9946 149.649 71.5366 149.105 70.9259 149.061L49.4868 147.276C48.8761 147.233 48.3309 147.69 48.2872 148.3C48.2436 148.909 48.7016 149.453 49.3123 149.497L70.7514 151.282C70.7732 151.282 70.8169 151.282 70.8387 151.282Z" fill="white"/>
<path d="M309.373 181.804H195.329L224.533 73.0394C226.212 66.7695 233.104 62.0018 239.036 62.9597L328.719 77.6111C333.473 78.3731 335.981 82.6619 334.629 87.669L309.373 181.804Z" fill="#10101A"/>
<path d="M115.135 181.804H263.507V169.46H125.189C119.627 169.46 115.135 173.966 115.135 179.496V181.804Z" fill="#10101A"/>
<path d="M271.324 139.274C267.24 137.893 265.612 131.816 267.688 125.701C269.763 119.586 274.757 115.748 278.841 117.13C282.925 118.511 284.553 124.588 282.477 130.703C280.402 136.818 275.408 140.655 271.324 139.274Z" fill="white"/>
</g>
</svg>
