<svg width="1536" height="836" viewBox="0 0 1536 836" fill="none" xmlns="http://www.w3.org/2000/svg">
<g clip-path="url(#clip0_2157_3)">
<path d="M1002.9 690C998.3 690 993.9 689.8 989.7 689.4C969.7 687.6 943.9 665.5 911 621.9C885.6 588.3 856 542 823.2 484.3C771.4 393.3 727.5 301.9 721.2 288.6C705.7 281.1 599.3 227.1 625.6 166C634.3 145.8 654.7 119.9 680.2 96.7001C701.5 77.3001 736.3 50.6001 781.4 33.3001C809.2 22.6001 837 17.1001 864.2 16.8001C895 16.5001 924.9 22.9001 953.2 35.9001C1050.1 80.4001 1086.6 139.4 1113.2 182.5C1127.9 206.3 1139.6 225.1 1156.7 235.6C1185.7 253.4 1224.5 249 1258.6 245.1C1282.6 242.4 1305.3 239.8 1321.4 245.5C1342 252.9 1350 272.5 1357.6 291.6C1364.6 309.1 1371.3 325.6 1387.2 330.7C1400.3 334.9 1415.9 335.6 1432.5 336.4C1460.6 337.7 1489.7 339.1 1508.3 358.3C1521 371.4 1525.9 393.6 1521.4 417.8C1517 441.5 1503.9 465.9 1483.4 488.3C1458.8 515.2 1424 539.3 1380 559.8C1287.6 602.9 1217.5 632.7 1159.1 653.5C1091.2 678.1 1039.8 690 1002.9 690ZM866.5 27.1001C865.8 27.1001 865.1 27.1001 864.3 27.1001C838.4 27.4001 811.7 32.7001 785.1 42.9001C707.2 72.8001 649.5 136.5 635 170.1C625.2 192.8 637.3 218 670.9 245C697 266 726.8 279.9 727.1 280.1C728.2 280.6 729.1 281.5 729.6 282.6C730.1 283.6 776.5 381.7 832.1 479.4C864.7 536.7 894 582.6 919.1 615.8C940.2 643.7 969.8 677.3 990.6 679.2C994.4 679.5 998.5 679.7 1002.7 679.7C1087.7 679.7 1245.7 611.3 1375.8 550.6C1418.6 530.7 1452.2 507.4 1475.9 481.5C1495.1 460.5 1507.4 437.9 1511.4 416C1515.2 395.4 1511.2 376.1 1501 365.6C1485.2 349.3 1458.2 348 1432.1 346.8C1415.6 346 1398.5 345.2 1384.1 340.6C1363.6 334 1355.7 314.5 1348.1 295.6C1341 277.9 1334.3 261.2 1318 255.4C1304.1 250.5 1282.6 252.9 1259.8 255.5C1224 259.6 1183.3 264.2 1151.3 244.6C1132.1 232.8 1119.2 212.1 1104.4 188.1C1077 143.8 1042.9 88.6001 948.8 45.4001C922.7 33.3001 894.9 27.1001 866.5 27.1001Z" fill="#10101A"/>
<path d="M713.7 288.2C713.7 288.2 587.1 221.1 611.7 154.4C636.3 87.8001 782.6 -57.1999 937.5 24.1001C1092.4 105.4 1100.1 217.3 1154.2 254.3C1208.3 291.3 1286.8 256 1325.4 272.1C1364 288.2 1358.6 355.2 1396.6 369.7C1434.5 384.1 1490.7 370.6 1520.3 403.5C1549.9 436.4 1549.4 541.8 1396.9 614.4C1244.4 687 1084.5 755 1001.9 744C919.4 733 713.7 288.2 713.7 288.2Z" fill="#010101"/>
<path d="M881.9 389.3C924.6 384.2 1009 376.9 1053.5 373.1C1072.5 371.5 1091.7 374.3 1109.5 381.2L1177.3 407.6C1189.2 412.2 1200.2 418.6 1210.2 426.6L1434.2 606C1482.4 644.6 1495.3 712.5 1464.6 766C1442.3 805 1400.8 829.1 1355.9 829.1H446L612.5 514.4C641.7 459.2 702.9 419 776.3 406.9L881.9 389.3Z" fill="#EBB8B8"/>
<path d="M895.5 533.2L921.2 517.4C970.7 487 989 424 963.5 371.8L896.6 234.8L761.4 317.9L861.7 523.4C867.9 535.9 883.5 540.5 895.5 533.2Z" fill="white"/>
<path d="M883 541.8C880.3 541.8 877.6 541.4 875 540.7C867.2 538.4 860.7 532.9 857.1 525.6L756.8 320.1C755.6 317.7 756.5 314.9 758.7 313.5L894 230.4C895.2 229.6 896.7 229.4 898.1 229.8C899.5 230.2 900.6 231.2 901.3 232.5L968.2 369.5C981.1 395.9 983.7 425.9 975.5 454.1C967.3 482.3 949 506.3 924 521.7L898.3 537.5C893.6 540.4 888.3 541.8 883 541.8ZM768.1 319.8L866.3 521.1C868.6 525.9 872.7 529.3 877.8 530.8C882.9 532.3 888.2 531.6 892.7 528.8L918.4 513C941.2 499 957.9 477.1 965.4 451.3C972.9 425.6 970.5 398.1 958.8 374L894.4 242.1L768.1 319.8Z" fill="#10101A"/>
<path d="M870.7 337.5C787.6 364 717.5 331.7 717.5 331.7C699.5 323.8 683.6 311.7 671.2 296.4C629 244.3 636.7 167.9 688.4 125.2L759 67C798.6 34.3 854.5 30 898.7 56.2L898.3 58C879.8 138.5 894.4 223 938.7 292.6L870.7 337.5Z" fill="white"/>
<path d="M802.8 353C787.2 353 773.3 351.5 762.1 349.6C734.3 344.9 716.7 337 715.4 336.4C696.7 328.2 680 315.5 667.2 299.7C646 273.4 636.1 240.4 639.5 206.8C642.9 173.2 659.1 142.8 685.2 121.3L755.7 63.0001C796.9 29.0001 855.4 24.5001 901.3 51.7001C903.2 52.8001 904.2 55.1001 903.7 57.3001L903.3 59.1001C894.3 98.5001 893.1 138.6 900 178.4C906.9 218.2 921.3 255.7 943 289.8C944.5 292.2 943.8 295.4 941.4 296.9C939 298.4 935.8 297.7 934.3 295.3C911.9 260.1 896.9 221.3 889.8 180.2C882.8 139.7 883.8 98.8001 892.8 58.8001C851.1 35.8001 799.1 40.5001 762.2 71.0001L691.7 129.3C667.7 149.1 652.8 177 649.7 207.9C646.6 238.8 655.6 269.1 675.2 293.3C687 307.9 702.3 319.6 719.6 327.1H719.7C720.4 327.4 789.1 358.2 869.2 332.7C871.9 331.8 874.8 333.3 875.7 336C876.6 338.7 875.1 341.6 872.4 342.5C847.3 350.4 823.4 353 802.8 353Z" fill="#10101A"/>
<path d="M948.4 327.9C976.622 327.9 999.5 305.022 999.5 276.8C999.5 248.578 976.622 225.7 948.4 225.7C920.178 225.7 897.3 248.578 897.3 276.8C897.3 305.022 920.178 327.9 948.4 327.9Z" fill="white"/>
<path d="M933 277.2C931.5 277.2 930 276.5 929 275.3C927.2 273.1 927.6 269.9 929.8 268.1C930.9 267.2 956.7 246.9 977.4 257.2C979.9 258.5 981 261.5 979.7 264.1C978.4 266.6 975.4 267.7 972.8 266.4C965.4 262.7 956.1 265.4 949.6 268.2C942 271.6 936.3 276.1 936.2 276.1C935.2 276.9 934.1 277.2 933 277.2Z" fill="#10101A"/>
<path d="M768.1 290.8C765.4 290.8 762.6 290.4 759.7 289.6C730.7 281.2 731.2 229.2 731.3 226.9C731.3 225.2 732.2 223.7 733.6 222.7C735 221.8 736.8 221.6 738.3 222.2L810.9 250.3C812.3 250.8 813.4 252 813.9 253.4C814.4 254.8 814.2 256.4 813.4 257.7C812.5 259.2 793.2 290.8 768.1 290.8ZM741.8 234.6C742.8 250.1 747.6 275.3 762.6 279.7C771.3 282.2 780.8 278.6 791 269.1C795.2 265.1 798.7 260.8 801.1 257.6L741.8 234.6Z" fill="#10101A"/>
<path d="M736.3 132.4C737 128.7 734.2 125.1 730.6 124.5C725.7 123.6 720.4 125 716.5 128.1C716.2 128.4 715.9 128.7 715.6 129C714.2 129.4 713 130 711.9 131C710.3 132.4 708.9 134 708.2 136.1C707.4 138.6 707.1 141.2 708 143.7C709 146.4 711 148.4 713.5 149.8C715.5 150.9 717.8 151.2 720.1 151.2C724.4 151.2 728.5 148.9 731.2 145.7C734.2 141.8 735.4 137 736.3 132.4Z" fill="#010101"/>
<path d="M813 167.7C812.8 165.5 811.5 163.7 809.7 162.6C809 162.1 808.1 161.7 807.2 161.6C806 161.4 804.8 161.6 803.7 162C799.7 163 796 165.7 793.5 168.9C792.5 170.2 791.6 171.7 790.9 173.2C790.4 173.9 790.1 174.7 789.7 175.4C788.4 178.3 787.8 182 788.5 185.2C788.6 186.4 789.1 187.5 789.8 188.5C790.3 189.3 791 189.9 791.9 190.3C793.8 191.5 795.8 191.6 797.9 190.9C807.5 187.9 813.9 177.6 813 167.7Z" fill="#010101"/>
<path d="M742.8 182.7C740.5 182.7 738.4 181.1 737.8 178.8C737.1 176 738.8 173.3 741.6 172.6C741.7 172.6 759.7 167.1 774 127.1C775 124.4 777.9 123 780.6 124C783.3 125 784.7 127.9 783.7 130.6C776.9 149.6 768.4 164 758.5 173.4C750.7 180.8 744.7 182.4 744 182.6C743.6 182.7 743.2 182.7 742.8 182.7Z" fill="#10101A"/>
<path d="M849 154.6C846.6 154.6 844.5 152.9 844 150.5C839.4 127.7 812.9 118 812.6 117.9C809.9 116.9 808.5 114 809.5 111.3C810.4 108.6 813.4 107.2 816 108.2C817.3 108.7 848.3 119.9 854 148.5C854.6 151.3 852.8 154 850 154.5C849.6 154.5 849.3 154.6 849 154.6Z" fill="#10101A"/>
<path d="M765.3 92.5L755 91.8V91.9C755 91.7 755.1 87.7 751.1 83.9C746.6 79.6 736.5 74.9 713.7 76.5C710.9 76.7 708.4 74.6 708.2 71.7C708 68.9 710.1 66.4 713 66.2C734.7 64.7 750.1 68.2 758.6 76.8C765.7 83.9 765.4 91.7 765.3 92.5Z" fill="#10101A"/>
<path d="M1236.8 690.4C1236.1 690.4 1235.3 690.2 1234.6 689.9L1063.7 610.1C1061.1 608.9 1060 605.8 1061.2 603.3C1062.4 600.7 1065.5 599.6 1068 600.8L1238.9 680.6C1241.5 681.8 1242.6 684.9 1241.4 687.4C1240.6 689.3 1238.8 690.4 1236.8 690.4Z" fill="white"/>
<path d="M811.7 414.3C809.9 397.2 801.1 382.3 785.6 369.9C742.2 335.2 699.1 311 687.6 303.5L703.6 242C705.8 238.1 717.3 201 713.9 202.1C711.7 202.8 702.4 183.2 700.2 182.7C689.7 180.8 672.9 234 661.5 264.7C660.9 239 671.7 173.6 673.7 154.1C676.6 124.7 638.2 113.4 636.5 112.9C635.3 112.6 634.1 112.8 633.2 113.4C632.2 114.1 631.6 115.1 631.5 116.3L629.9 134.2C609.9 101.1 581.3 112.9 581 113C579.2 113.8 578.3 115.7 578.7 117.6L613 260.2C613.4 262 615.1 263.2 616.9 263.2C617.2 263.2 617.5 263.2 617.8 263.1C618.1 263 618.4 262.8 618.7 262.7L615.6 298.5C615.5 299.5 615.8 300.5 616.4 301.3L699.9 408.3L694.8 451.6C694.6 453.6 695.9 455.5 697.8 455.9L787.6 477C787.9 477.1 788.2 477.1 788.5 477.1C789.7 477.1 790.8 476.6 791.6 475.6C792.5 474.7 815.1 446.6 811.7 414.3Z" fill="white"/>
<path d="M538.5 705.7C539.3 693.6 699.9 408.4 699.9 408.4L796 452.1L679.8 790.1C679.8 790.2 529.2 839.1 538.5 705.7Z" fill="white"/>
<path d="M689.9 760.2C689.3 760.2 688.8 760.1 688.2 759.9C685.5 759 684.1 756 685 753.4L783.6 471.7C783.8 471.1 784.1 470.6 784.5 470.1C784.7 469.8 805.7 443.7 802.7 415.2C801.1 400.7 793.5 387.8 780 377C728.1 335.4 685.8 308.9 685.4 308.7C683.5 307.5 682.6 305.2 683.1 303.1L704.8 219.6C707 211.3 706.9 203.1 704.5 195.9C703.1 191.6 701 188.3 698.3 186.3C692 200.4 673 248.5 661.1 279.3C660.1 281.9 657.1 283.3 654.5 282.2C651.9 281.2 650.5 278.2 651.6 275.6C651.7 275.4 661.3 250.7 670.9 226.3C676.6 212 681.2 200.6 684.6 192.5C686.6 187.6 688.2 183.9 689.4 181.3C691.2 177.4 693.2 173 697.9 174.5C705.6 177.1 711.3 183.4 714.4 192.7C717.4 201.8 717.5 212 714.9 222.2L694 302C704.9 309 742.1 333.6 786.4 369C802.1 381.6 811.1 396.8 812.9 414.2C816.1 444.4 796.8 471 793 475.9L694.7 756.8C694 758.8 692 760.2 689.9 760.2Z" fill="#010101"/>
<path d="M542 710.9C541.2 710.9 540.3 710.7 539.6 710.3C537.1 708.9 536.2 705.8 537.5 703.3L697.9 407.8L615.5 302.2C614.7 301.2 614.3 299.9 614.4 298.6L630.2 116.4C630.3 114.9 631.1 113.5 632.4 112.6C633.7 111.7 635.2 111.5 636.7 111.9C638.4 112.4 677.8 124 674.7 154.3C672.1 180.1 672.8 245.3 672.8 245.9C672.8 248.7 670.6 251.1 667.7 251.1C664.9 251.1 662.5 248.9 662.5 246C662.5 243.3 661.8 179.6 664.5 153.3C666.1 137.4 649.2 127.9 639.8 124L624.7 297.5L708 404.1C709.3 405.7 709.4 407.9 708.5 409.7L546.5 708.1C545.6 709.9 543.8 710.9 542 710.9Z" fill="#010101"/>
<path d="M620.3 274.2C618 274.2 615.9 272.6 615.3 270.3L577.5 118C576.9 115.4 578.3 112.7 580.9 111.9C581.5 111.7 596.9 106.7 612.1 114.9C623.4 121 631.4 132.7 635.7 149.5C636.4 152.2 634.8 155.1 632 155.8C629.3 156.5 626.4 154.9 625.7 152.1C622.1 138.1 615.8 128.7 607.1 124C600.2 120.3 593.2 120.2 588.8 120.8L625.4 267.9C626.1 270.7 624.4 273.4 621.7 274.1C621.2 274.2 620.7 274.2 620.3 274.2Z" fill="#010101"/>
<path d="M1205.3 691.2C1205.2 690.1 1204.7 689.2 1203.8 688.5C1203 687.8 1201.9 687.5 1200.8 687.7L932.6 721.9C920.8 705.7 900.4 679.4 865.4 635.8C860.2 629.3 852.5 625.6 844.2 625.6H840.1L836.9 621.5C830.3 613.1 819.3 609.3 808.7 611.9L801 605.5C791.2 597.3 776.7 597.1 766.6 605.1L763.9 607.3C763.8 607.3 763.7 607.3 763.6 607.4L686.1 636.4C685.3 636.7 684.6 637.3 684.2 638L630.1 722.5C629.2 724 629.3 725.9 630.4 727.2C634.1 731.6 642.3 737.5 653 737.5C657.7 737.5 662.9 736.4 668.4 733.4C674.1 730.4 678.7 727.2 682.6 724.1L666.8 764.1C666 766.1 666.9 768.3 668.9 769.2C671 770.1 685 776.2 697.2 776.2C701.7 776.2 705.9 775.3 709.2 773.1C713.7 776.1 719.8 778.7 726.3 778.7C731.5 778.7 736.9 777 742 772.4C745.9 768.9 749.5 764.7 752.7 760.5C752.8 761.6 753.2 762.7 754.1 763.4C757.6 766.1 762.8 769 768.2 770.3C768.3 770.4 768.3 770.6 768.4 770.7C769.8 772.5 804.1 813.7 833.6 819.6C866.6 826.2 914.2 826.3 916.2 826.3H1214.6C1215.7 826.3 1216.8 825.8 1217.5 825C1218.3 824.2 1218.6 823.1 1218.5 821.9L1205.3 691.2Z" fill="white"/>
<path d="M932 731.1C929.5 731.1 927.2 729.2 926.9 726.6C926.5 723.8 928.5 721.2 931.3 720.9L1200.7 686.6C1203.5 686.2 1206.1 688.2 1206.4 691C1206.8 693.8 1204.8 696.4 1202 696.7L932.6 731C932.4 731.1 932.2 731.1 932 731.1Z" fill="#010101"/>
<path d="M697.2 777.4C684.7 777.4 670.6 771.3 668.4 770.3C665.9 769.2 664.7 766.3 665.7 763.7L704.5 665.7C708.8 654.7 716 645 725.1 637.6L766 604.3C776.6 596 791.6 596.2 801.9 604.7L809.1 610.7C819.7 608.2 831.1 612.1 837.9 620.8L840.8 624.4H844.3C853 624.4 861 628.3 866.5 635C950.4 739.4 950.4 745.5 950.4 748.4C950.4 751.2 948.1 753.5 945.3 753.5C942.7 753.5 940.5 751.6 940.2 749.1C937.7 742.4 905.7 700.3 858.5 641.5C855 637.2 849.9 634.7 844.4 634.7H838.4C836.8 634.7 835.3 634 834.4 632.7L830 627.1C825.3 621.1 817.2 618.7 810 621.1L809.7 621.2C808 621.8 806.2 621.4 804.8 620.3L795.5 612.6C789 607.1 779.3 607 772.6 612.3L731.8 645.5C724 651.8 717.9 660.1 714.3 669.5L677.4 762.8C687.1 766.4 699.8 769.1 704.6 765.5C706.9 763.8 710.1 764.3 711.8 766.5C713.5 768.8 713 772 710.8 773.7C706.9 776.4 702.2 777.4 697.2 777.4Z" fill="#010101"/>
<path d="M726.2 779.9C717 779.9 708.5 774.8 704 770.6C702.5 769.2 701.9 767 702.7 765L727 699.1C732.1 685.2 739.9 672.7 750.1 661.9L780.4 629.8C782.3 627.7 785.6 627.6 787.7 629.6C789.8 631.5 789.9 634.8 787.9 636.9L757.6 669C748.4 678.8 741.4 690.1 736.7 702.7L713.7 765.1C718.2 768.2 727.7 773 735.8 765.7C749.4 753.4 759.6 731.9 759.7 731.7C760.9 729.1 764 728 766.5 729.2C769.1 730.4 770.2 733.5 769 736C768.6 737 757.8 759.5 742.7 773.3C737.3 778.2 731.6 779.9 726.2 779.9Z" fill="#010101"/>
<path d="M773.5 772.2C770.6 772.2 767.6 771.6 764.4 770.4C758.3 768.2 753.5 764.5 753.3 764.4C751.6 763.1 750.9 760.9 751.5 758.9L763.1 719.9C767.9 703.8 777.1 689.3 789.7 678.2C816 654.9 818.9 653.4 820.2 652.8C822.7 651.5 825.8 652.6 827.1 655.1C828.4 657.6 827.3 660.7 824.8 662C824 662.5 819.5 665.5 796.5 685.9C785.4 695.8 777.2 708.6 773 722.9L762.5 758.2C766.8 760.7 774.8 764.4 779 759.7C788 749.4 810.2 719.4 810.4 719.1C810.7 718.7 811.1 718.3 811.5 718L839.2 698.2C841.5 696.6 844.7 697.1 846.4 699.4C848 701.7 847.5 704.9 845.2 706.6L818.1 725.9C814.7 730.5 795.3 756.6 786.6 766.5C783.2 770.2 778.7 772.2 773.5 772.2Z" fill="#010101"/>
<path d="M1214.5 827.5H916.1C914.1 827.5 866.4 827.4 833.2 820.8C803.3 814.8 767.1 773.3 765.6 771.6C763.7 769.5 764 766.2 766.1 764.4C768.2 762.5 771.5 762.8 773.3 764.9C773.7 765.3 808.7 805.5 835.1 810.8C867.2 817.2 915.5 817.3 916 817.3H1214.4C1217.2 817.3 1219.5 819.6 1219.5 822.4C1219.7 825.2 1217.4 827.5 1214.5 827.5Z" fill="#010101"/>
<path d="M653.1 738.7C642 738.7 633.4 732.5 629.6 728C628.2 726.3 628 723.8 629.2 721.9L683.3 637.4C683.9 636.5 684.7 635.8 685.7 635.4L758.3 606.4C760.9 605.3 763.9 606.6 765 609.3C766.1 611.9 764.8 614.9 762.1 616L691 644.4L640 724C644.1 727.2 652.6 731.6 664 725.5C682.3 715.7 689.7 703.7 689.7 703.6C691.2 701.2 694.3 700.4 696.8 701.8C699.2 703.3 700 706.4 698.6 708.9C698.2 709.5 689.7 723.5 668.9 734.6C663.3 737.5 657.9 738.7 653.1 738.7Z" fill="#010101"/>
<path d="M838.9 741.7C837.2 741.7 835.5 740.8 834.5 739.2C826.9 726.7 823.6 723.4 822.9 722.7C821.1 721.9 819.9 720.1 819.9 718C819.9 715.2 822.2 712.9 825 712.9C827.3 712.9 830.5 712.9 843.3 733.9C844.8 736.3 844 739.5 841.6 741C840.7 741.4 839.8 741.7 838.9 741.7Z" fill="#010101"/>
<path d="M1211.2 694.9C1208.6 694.9 1206.3 692.9 1206.1 690.2C1205.9 687.4 1208 684.9 1210.8 684.7L1309.1 676.5C1311.9 676.3 1314.4 678.4 1314.6 681.2C1314.8 684 1312.7 686.5 1309.9 686.7L1211.6 694.9C1211.5 694.9 1211.3 694.9 1211.2 694.9Z" fill="white"/>
<path d="M117.5 835.1H640.4L506.5 335.5C498.8 306.7 467.2 284.8 440 289.2L28.8 356.5C6.99998 360 -4.50002 379.7 1.69998 402.7L117.5 835.1Z" fill="#10101A"/>
<path d="M1008.1 835.1H327.8V778.4H962C987.5 778.4 1008.1 799.1 1008.1 824.5V835.1Z" fill="#10101A"/>
<path d="M291.958 639.742C310.684 633.398 318.149 605.484 308.632 577.395C299.115 549.306 276.22 531.679 257.494 538.024C238.768 544.369 231.303 572.283 240.82 600.371C250.337 628.46 273.232 646.087 291.958 639.742Z" fill="white"/>
<path d="M472.1 60.7002H370.4C334 60.7002 304.5 90.2002 304.5 126.6V143C304.5 173 324.6 198.3 352 206.3V250.6L399.8 208.9H472.1C508.5 208.9 538 179.4 538 143V126.7C538.1 90.3002 508.5 60.7002 472.1 60.7002Z" fill="white"/>
<path d="M352 255.7C351.3 255.7 350.6 255.5 349.9 255.2C348.1 254.4 346.9 252.5 346.9 250.5V210C318.7 200.1 299.4 173.1 299.4 143V126.7C299.4 87.5001 331.3 55.6001 370.5 55.6001H472.3C511.5 55.6001 543.4 87.5001 543.4 126.7V143C543.4 182.2 511.5 214.1 472.3 214.1H401.9L355.6 254.5C354.4 255.2 353.2 255.7 352 255.7ZM370.4 65.9001C336.9 65.9001 309.6 93.2001 309.6 126.7V143C309.6 169.9 327.6 193.8 353.4 201.3C355.6 201.9 357.1 203.9 357.1 206.2V239.2L396.4 205C397.3 204.2 398.5 203.7 399.8 203.7H472.1C505.6 203.7 532.9 176.4 532.9 142.9V126.6C532.9 93.1001 505.6 65.8001 472.1 65.8001H370.4V65.9001Z" fill="#10101A"/>
</g>
<defs>
<clipPath id="clip0_2157_3">
<rect width="1535.5" height="835.1" fill="white"/>
</clipPath>
</defs>
</svg>
