<svg width="39" height="30" viewBox="0 0 39 30" fill="none" xmlns="http://www.w3.org/2000/svg">
<path d="M1.05029 0.998827C4.7238 1.12514 8.22056 2.63972 10.8284 5.24757C13.5543 7.97349 15.0857 11.6706 15.0857 15.5257V29.3041C11.4122 29.1778 7.91548 27.6632 5.30763 25.0553C2.5817 22.3294 1.05029 18.6323 1.05029 14.7772V0.998827Z" stroke="black"/>
<path d="M16.8989 17.6561V10.0694C16.8989 7.52884 17.9082 5.09235 19.7046 3.2959C21.501 1.49946 23.9375 0.490234 26.4781 0.490234V8.07948C26.4781 9.33731 26.2303 10.5828 25.7489 11.7449C25.2674 12.9069 24.5618 13.9628 23.6723 14.8521C22.7827 15.7414 21.7267 16.4467 20.5645 16.9278C19.4023 17.409 18.1568 17.6564 16.8989 17.6561Z" stroke="black" stroke-miterlimit="10"/>
<path d="M17.4112 19.6455H27.883C30.5796 19.6455 33.1657 20.7167 35.0724 22.6235C36.861 24.412 37.9144 26.7983 38.0381 29.3129H27.5663C24.8697 29.3129 22.2836 28.2417 20.3769 26.3349C18.5883 24.5463 17.5349 22.16 17.4112 19.6455Z" stroke="black"/>
</svg>
