<svg width="302" height="201" viewBox="0 0 302 201" fill="none" xmlns="http://www.w3.org/2000/svg">
<g clip-path="url(#clip0_2168_67)">
<path d="M136.97 151.5C136.97 151.5 118.84 194.67 94.7798 187.33C93.8998 187.06 97.4798 174.29 97.4798 174.29L127.45 129.16L136.96 151.5H136.97Z" fill="white"/>
<path d="M100.26 189.16C98.3299 189.16 96.3999 188.87 94.4999 188.29C93.5299 187.99 92.6899 187.74 96.5299 174.02C96.5599 173.92 96.5999 173.82 96.6599 173.74L126.63 128.61C126.83 128.3 127.18 128.13 127.55 128.17C127.92 128.2 128.23 128.44 128.38 128.77L137.89 151.11C138 151.36 138 151.64 137.89 151.89C137.84 152 133.22 162.91 125.69 172.78C117.43 183.6 108.74 189.16 100.25 189.16H100.26ZM95.6499 186.54C117.11 192.34 134.03 155.68 135.88 151.5L127.27 131.26L98.4099 174.71C97.0699 179.5 95.7799 184.85 95.6499 186.54Z" fill="#010101"/>
<path d="M119.92 179.87L119.83 200.43L60.49 200.18C55.51 200.16 54.71 192.49 59.2 188.75L98.53 173.68C98.53 173.68 102.04 187.4 119.92 179.86V179.87Z" fill="white"/>
<path d="M119.92 180.41L119.86 195.1L60.52 194.85C55.54 194.83 54.73 190.44 59.21 187.78L97.71 174.07C97.71 174.07 102.05 185.78 119.92 180.41Z" fill="#EBB8B8"/>
<path d="M119.83 201.43L60.4901 201.18C58.2701 201.18 56.4801 199.85 55.6901 197.66C54.6901 194.88 55.3601 190.66 58.5601 187.98C58.6401 187.91 58.7401 187.85 58.8401 187.81L98.1701 172.74C98.4401 172.64 98.7301 172.65 98.9901 172.79C99.2401 172.92 99.4301 173.15 99.5001 173.43C99.5101 173.47 100.71 177.88 104.98 179.98C108.68 181.8 113.57 181.45 119.53 178.94C119.84 178.81 120.19 178.84 120.47 179.03C120.75 179.22 120.92 179.53 120.92 179.87L120.83 200.43C120.83 200.98 120.38 201.43 119.83 201.43ZM59.7201 189.62C57.3501 191.69 56.8301 194.94 57.5701 196.98C57.8601 197.8 58.6401 199.17 60.5001 199.18L118.84 199.43L118.92 181.35C113 183.58 108.01 183.73 104.07 181.77C100.32 179.91 98.6001 176.66 97.9301 174.99L59.7301 189.62H59.7201Z" fill="#010101"/>
<path d="M92.85 185.14C92.47 185.14 92.11 184.93 91.94 184.56L87.6 175.21C87.37 174.71 87.59 174.11 88.09 173.88C88.59 173.65 89.19 173.87 89.42 174.37L93.76 183.72C93.99 184.22 93.77 184.82 93.27 185.05C93.13 185.11 92.99 185.14 92.85 185.14Z" fill="#010101"/>
<path d="M86.3801 185.11C85.9901 185.11 85.6201 184.88 85.4601 184.5L82.2601 177.06C82.0401 176.55 82.2701 175.96 82.7801 175.75C83.2801 175.53 83.8801 175.77 84.0901 176.27L87.3001 183.71C87.5201 184.22 87.2901 184.81 86.7801 185.02C86.6501 185.08 86.5201 185.1 86.3801 185.1V185.11Z" fill="#010101"/>
<path d="M79.9001 185.08C79.5201 185.08 79.1601 184.86 78.9901 184.5L76.5401 179.16C76.3101 178.66 76.5401 178.06 77.0301 177.83C77.5301 177.6 78.1201 177.82 78.3601 178.32L80.8101 183.66C81.0401 184.16 80.8101 184.76 80.3201 184.99C80.1901 185.05 80.0401 185.08 79.9001 185.08Z" fill="#010101"/>
<path d="M92.3999 175.93C92.3099 175.93 92.2199 175.92 92.1399 175.9C92.0799 175.9 92.0099 175.9 91.9399 175.88C91.6199 175.81 91.3599 175.58 91.2099 175.29C88.9199 173.37 87.6099 169.66 87.6999 167.1C87.7599 165.42 88.5199 163.7 89.7899 162.39C90.7799 161.37 92.3499 160.64 93.5999 161.33C93.9699 161.53 94.2199 161.81 94.4299 162.08C97.0999 165.43 95.9499 170.89 93.3899 174.84C93.4299 175.32 93.1199 175.78 92.6399 175.9C92.5599 175.92 92.4699 175.93 92.3899 175.93H92.3999ZM92.5199 163.06C92.2499 163.06 91.6999 163.3 91.2299 163.79C90.2999 164.75 89.7399 165.98 89.6999 167.17C89.6299 169.17 90.6599 171.78 91.9999 173.27C93.9299 170 94.7499 165.69 92.8599 163.32C92.8199 163.26 92.6999 163.12 92.6399 163.08C92.6099 163.06 92.5699 163.06 92.5199 163.06Z" fill="#010101"/>
<path d="M219.14 81.8C206.51 66.19 177.96 66.65 164 82.69L97.29 159.34L128.66 176.26L178.29 126.77L219.14 81.81V81.8Z" fill="#10101A"/>
<path d="M81.7198 151.5C81.7198 151.5 63.5898 194.67 39.5298 187.33C38.6498 187.06 42.2298 174.29 42.2298 174.29L72.1998 129.16L81.7098 151.5H81.7198Z" fill="white"/>
<path d="M44.9999 189.16C43.0699 189.16 41.1399 188.87 39.2399 188.29C38.2699 187.99 37.4299 187.74 41.2699 174.02C41.2999 173.92 41.3399 173.82 41.3999 173.74L71.3699 128.61C71.5699 128.3 71.9199 128.13 72.2899 128.17C72.6599 128.2 72.9699 128.44 73.1199 128.77L82.6299 151.11C82.7399 151.36 82.7399 151.64 82.6299 151.89C82.5799 152 77.9599 162.91 70.4299 172.78C62.1699 183.6 53.4799 189.16 44.9899 189.16H44.9999ZM40.3999 186.54C61.8599 192.34 78.7799 155.68 80.6299 151.5L72.0099 131.26L43.1499 174.71C41.8099 179.5 40.5199 184.85 40.3899 186.54H40.3999Z" fill="#010101"/>
<path d="M64.66 179.87L64.57 200.43L5.23003 200.18C0.250031 200.16 -0.549969 192.49 3.94003 188.75L43.27 173.68C43.27 173.68 46.78 187.4 64.66 179.86V179.87Z" fill="white"/>
<path d="M64.66 180.41L64.6 195.1L5.26003 194.85C0.280029 194.83 -0.529971 190.44 3.95003 187.78L42.45 174.07C42.45 174.07 46.79 185.78 64.66 180.41Z" fill="#EBB8B8"/>
<path d="M64.5801 201.43L5.24009 201.18C3.02009 201.18 1.23009 199.85 0.440085 197.66C-0.559915 194.88 0.110085 190.66 3.32009 187.98C3.40008 187.91 3.50009 187.85 3.60009 187.81L42.9301 172.74C43.2001 172.64 43.4901 172.65 43.7501 172.79C44.0001 172.92 44.1901 173.15 44.2601 173.43C44.2701 173.47 45.4701 177.88 49.7401 179.98C53.4401 181.8 58.3301 181.45 64.2901 178.94C64.6001 178.81 64.9501 178.84 65.2301 179.03C65.5101 179.22 65.6801 179.53 65.6801 179.87L65.5901 200.43C65.5901 200.98 65.1401 201.43 64.5901 201.43H64.5801ZM4.46009 189.62C2.09009 191.69 1.57009 194.94 2.31009 196.98C2.60009 197.8 3.38008 199.17 5.24009 199.18L63.5801 199.43L63.6601 181.35C57.7401 183.58 52.7501 183.73 48.8101 181.77C45.0601 179.91 43.3401 176.66 42.6701 174.99L4.47009 189.62H4.46009Z" fill="#010101"/>
<path d="M37.6 185.14C37.22 185.14 36.86 184.93 36.69 184.56L32.35 175.21C32.12 174.71 32.34 174.11 32.84 173.88C33.34 173.65 33.93 173.87 34.17 174.37L38.51 183.72C38.74 184.22 38.52 184.82 38.02 185.05C37.88 185.11 37.74 185.14 37.6 185.14Z" fill="#010101"/>
<path d="M31.1201 185.11C30.7301 185.11 30.3601 184.88 30.2001 184.5L26.9901 177.06C26.7701 176.55 27.0001 175.96 27.5101 175.75C28.0101 175.53 28.6101 175.77 28.8201 176.27L32.0201 183.71C32.2401 184.22 32.0101 184.81 31.5001 185.02C31.3701 185.08 31.2401 185.1 31.1001 185.1L31.1201 185.11Z" fill="#010101"/>
<path d="M24.6501 185.08C24.2701 185.08 23.9101 184.86 23.7401 184.5L21.2901 179.16C21.0601 178.66 21.2901 178.06 21.7801 177.83C22.2801 177.6 22.8701 177.82 23.1101 178.32L25.5601 183.66C25.7901 184.16 25.5601 184.76 25.0701 184.99C24.9401 185.05 24.7901 185.08 24.6501 185.08Z" fill="#010101"/>
<path d="M37.1399 175.93C37.0499 175.93 36.9599 175.92 36.8799 175.9C36.8099 175.9 36.7499 175.9 36.6799 175.88C36.3599 175.81 36.0999 175.58 35.9599 175.29C33.6699 173.37 32.3599 169.66 32.4499 167.1C32.5099 165.42 33.2699 163.7 34.5399 162.39C35.5299 161.37 37.0999 160.64 38.3499 161.33C38.7099 161.53 38.9599 161.8 39.1799 162.07C41.8499 165.42 40.6999 170.88 38.1399 174.83C38.1799 175.31 37.8699 175.77 37.3899 175.89C37.3099 175.91 37.2199 175.92 37.1399 175.92V175.93ZM37.2699 163.06C36.9999 163.06 36.4499 163.3 35.9799 163.79C35.0499 164.75 34.4899 165.98 34.4499 167.17C34.3799 169.17 35.4099 171.78 36.7499 173.27C38.6799 170 39.4999 165.69 37.6099 163.32C37.5699 163.27 37.4499 163.12 37.3899 163.08C37.3599 163.06 37.3199 163.06 37.2699 163.06Z" fill="#010101"/>
<path d="M258.87 199.22L163.89 81.8C151.26 66.19 122.71 66.65 108.75 82.69L42.04 159.34L73.41 176.26L123.04 126.77L164.82 191.51C170.84 200.84 179.76 207.94 190.21 211.72H237.45C246.32 211.72 254.5 206.95 258.88 199.23L258.87 199.22Z" fill="#10101A"/>
<path d="M121.26 30.3501L199.13 94.2201L150.44 110.07L118.27 32.3701L121.26 30.3501Z" fill="#EBB8B8"/>
<path d="M170.62 39.27L199.13 94.22L155.34 110.07L122.01 29.78L170.62 39.27Z" fill="white"/>
<path d="M155.34 111.07C154.95 111.07 154.58 110.84 154.42 110.45L121.09 30.1601C120.95 29.8201 121.01 29.4301 121.24 29.1401C121.47 28.8501 121.85 28.7201 122.21 28.7901L170.82 38.2901C171.12 38.3501 171.38 38.5401 171.52 38.8101L200.03 93.7501C200.16 94.0101 200.18 94.3101 200.07 94.5701C199.96 94.8401 199.75 95.0501 199.48 95.1501L155.69 111C155.58 111.04 155.46 111.06 155.35 111.06L155.34 111.07ZM123.65 31.1201L155.9 108.8L197.72 93.6601L169.95 40.1601L123.64 31.1101L123.65 31.1201Z" fill="#10101A"/>
<path d="M168.49 39.27L199.13 94.22L240.57 75.53L209.93 4.73999L168.49 39.27Z" fill="white"/>
<path d="M199.13 95.2199C198.78 95.2199 198.44 95.0299 198.26 94.7099L167.62 39.7699C167.39 39.3499 167.48 38.8199 167.85 38.5099L209.29 3.96991C209.53 3.76991 209.86 3.68991 210.16 3.76991C210.47 3.83991 210.72 4.05991 210.85 4.34991L241.49 75.1399C241.71 75.6399 241.49 76.2199 240.98 76.4499L199.54 95.1299C199.41 95.1899 199.27 95.2199 199.13 95.2199ZM169.77 39.5099L199.56 92.9299L239.26 75.0299L209.54 6.35991L169.76 39.5099H169.77Z" fill="#10101A"/>
<path d="M212.854 29.2376C222.099 26.5922 227.816 18.2407 225.625 10.5841C223.434 2.9275 214.164 -1.13479 204.919 1.5107C195.675 4.15619 189.958 12.5077 192.149 20.1643C194.34 27.8208 203.61 31.8831 212.854 29.2376Z" fill="#10101A"/>
<path d="M262.95 98.38L226.2 94.71L215.94 61.74L246.54 52.22L262.95 98.38Z" fill="white"/>
<path d="M262.95 99.3801C262.95 99.3801 262.88 99.3801 262.85 99.3801L226.1 95.7101C225.7 95.6701 225.36 95.4001 225.24 95.0101L214.99 62.0401C214.91 61.7901 214.94 61.5101 215.06 61.2801C215.18 61.0501 215.39 60.8701 215.65 60.7901L246.25 51.2701C246.76 51.1101 247.31 51.3801 247.49 51.8901L263.89 98.0401C264 98.3601 263.95 98.7201 263.73 98.9901C263.54 99.2301 263.25 99.3701 262.94 99.3701L262.95 99.3801ZM226.95 93.7801L261.47 97.2201L245.92 53.4601L217.19 62.4001L226.95 93.7801Z" fill="#10101A"/>
<path d="M242.44 66.52C248.88 62.24 253.78 55.47 255.65 47.21C259.42 30.51 249.28 14.38 233.19 10.36C206.8 3.76996 197.39 26.6 197.09 31.64C197.02 32.82 196.95 33.97 196.87 35.07C196.52 36.91 196.33 38.75 196.31 40.56C195.73 44.45 194.7 47.41 192.54 48.92C189.23 51.23 199.36 79.12 220.05 70.94L242.46 66.52H242.44Z" fill="white"/>
<path d="M212.62 73.35C206.9 73.35 199.51 70.88 193.89 60.4C191.3 55.58 189.75 49.63 191.95 48.09C193.64 46.91 194.67 44.56 195.29 40.47C195.32 38.64 195.51 36.77 195.86 34.94C195.94 33.86 196.01 32.73 196.08 31.58C196.3 28.03 199.91 19.06 207.63 13.4C214.69 8.22004 223.37 6.87004 233.43 9.39004C250.3 13.61 260.49 30.31 256.62 47.43C254.76 55.67 249.92 62.75 242.99 67.35C242.53 67.65 241.91 67.53 241.6 67.07C241.29 66.61 241.42 65.99 241.88 65.68C248.38 61.36 252.92 54.72 254.66 46.98C258.28 30.93 248.74 15.27 232.94 11.32C223.48 8.96004 215.37 10.2 208.81 15.01C201.14 20.63 198.22 29.33 198.08 31.7C198.01 32.89 197.94 34.03 197.86 35.14C197.86 35.18 197.86 35.22 197.85 35.26C197.51 37.03 197.33 38.81 197.3 40.58C197.3 40.63 197.3 40.67 197.29 40.71C196.58 45.43 195.29 48.22 193.1 49.74C192.4 50.47 193.27 56.18 197.21 62.03C200.56 67 207.94 74.65 219.67 70.01C220.18 69.81 220.76 70.06 220.97 70.57C221.17 71.08 220.92 71.66 220.41 71.87C218.93 72.46 216.08 73.36 212.63 73.36L212.62 73.35Z" fill="#10101A"/>
<path d="M236.92 3.9001C226.11 1.4601 215.32 4.8901 207.66 12.1101C210.65 11.9801 213.68 12.2101 216.7 12.8901C237.22 17.5201 249.63 40.0001 244.42 63.1001C244.13 64.3801 243.79 65.6401 243.4 66.8701C252.11 62.5201 258.93 54.3001 261.28 43.8701C265.37 25.7501 254.46 7.8501 236.92 3.8901V3.9001Z" fill="#10101A"/>
<path d="M205.07 10.66C205.07 10.66 209.97 18.39 218.2 20.47C222.55 21.57 215.2 22.93 217.02 27.21C230.64 59.27 235.09 64.8 235.09 64.8C236.53 67.48 239.54 68.9 242.52 68.32L251.5 66.57L251.95 57.74L246.5 21.81C246.5 21.81 221.09 1.00996 205.06 10.67L205.07 10.66Z" fill="#10101A"/>
<path d="M200.92 62.12C200.53 62.12 200.15 61.89 199.99 61.5C199.78 60.99 200.03 60.4 200.54 60.2C202.54 59.38 203.11 57.04 203.12 57.02C203.25 56.49 203.78 56.15 204.32 56.27C204.86 56.39 205.19 56.93 205.07 57.46C205.04 57.6 204.28 60.82 201.3 62.04C201.18 62.09 201.05 62.12 200.92 62.12Z" fill="#10101A"/>
<path d="M207.19 35.8C206.7 35.8 206.27 35.44 206.2 34.94C206.09 34.21 205.11 33.02 203.7 32.36C202.87 31.97 201.22 31.46 199.53 32.49C199.06 32.78 198.44 32.63 198.16 32.16C197.87 31.69 198.02 31.07 198.49 30.79C200.33 29.67 202.49 29.59 204.55 30.56C206.46 31.46 207.95 33.15 208.17 34.66C208.25 35.21 207.87 35.71 207.33 35.79C207.28 35.79 207.23 35.8 207.18 35.8H207.19Z" fill="#10101A"/>
<path d="M202.22 41.34C201.91 42.22 201.15 42.75 200.52 42.53C199.89 42.31 199.63 41.42 199.94 40.54C200.25 39.66 201.01 39.13 201.64 39.35C202.27 39.57 202.53 40.46 202.22 41.34Z" fill="#10101A"/>
<path d="M217.28 23.9099C217.28 23.9099 207.79 36.0799 211.08 41.8999C214.37 47.7199 225.71 45.8199 227.54 56.9199C229.36 68.0199 229.09 73.7999 216.27 78.1899C199.17 84.0499 197.41 101.76 200.2 111.5C202.99 121.24 240.58 84.5399 240.58 84.5399C240.58 84.5399 251.31 64.4399 217.29 23.9199L217.28 23.9099Z" fill="#10101A"/>
<path d="M220.87 3.42995C227.9 -3.17005 259.37 -2.73005 264.56 27.68C267.14 42.8 270.07 65.82 276.71 72.03C283.35 78.24 297.38 82.87 293.35 90.51C289.32 98.15 258.85 110.65 253.32 107.37C247.79 104.09 229.33 93.43 237.78 61.56C246.22 29.69 225.63 20.99 223.59 20.49C221.56 19.99 210.56 13.12 220.87 3.42995Z" fill="#10101A"/>
<path d="M215.55 52.44C216.9 57.17 221.83 59.9 226.56 58.55C231.29 57.2 234.02 52.2701 232.67 47.5401C231.32 42.8101 226.39 40.08 221.66 41.43C216.93 42.78 214.2 47.71 215.55 52.44Z" fill="white"/>
<path d="M220.86 54.1599C220.42 54.1599 220.02 53.8699 219.9 53.4299C218.69 49.2199 224.46 45.4699 224.7 45.3099C225.16 45.0099 225.78 45.1499 226.08 45.6099C226.38 46.0699 226.24 46.6899 225.78 46.9899C224.45 47.8399 221.16 50.5699 221.82 52.8799C221.97 53.4099 221.66 53.9599 221.13 54.1199C221.04 54.1499 220.95 54.1599 220.85 54.1599H220.86Z" fill="#10101A"/>
<path d="M181.79 153.21L206.26 97.4401C208.96 91.5701 213.81 86.9701 219.81 84.5801L257.54 69.5801C270.15 64.5701 301 56.9701 297.12 97.1201C289.39 177.01 264.75 196.83 264.75 196.83C264.75 196.83 228.33 210.59 181.79 153.21Z" fill="white"/>
<path d="M254.19 199.29C250.45 199.29 245.83 198.85 240.47 197.51C215.54 191.27 194.37 170.32 181 153.84C180.76 153.55 180.71 153.15 180.86 152.81L205.33 97.04C208.16 90.9 213.16 86.15 219.43 83.65L257.16 68.65C263.66 66.06 279.88 60.87 290.02 68.49C296.74 73.54 299.46 83.2 298.1 97.21C290.42 176.61 266.38 196.79 265.36 197.61C265.28 197.68 265.19 197.73 265.09 197.77C264.84 197.86 260.95 199.29 254.18 199.29H254.19ZM182.95 153.05C196.1 169.17 216.7 189.43 240.79 195.52C254.25 198.93 262.98 196.35 264.24 195.94C266.1 194.28 288.82 172.54 296.13 97.01C297.41 83.74 294.96 74.68 288.83 70.08C279.5 63.07 264.1 68.04 257.91 70.5L220.18 85.5C214.39 87.8 209.77 92.19 207.16 97.85L182.94 153.04L182.95 153.05Z" fill="#10101A"/>
<path d="M280.426 100.978C287.281 88.4926 282.717 72.814 270.232 65.9587C257.746 59.1034 242.068 63.6674 235.213 76.1526C228.357 88.6378 232.921 104.316 245.407 111.172C257.892 118.027 273.57 113.463 280.426 100.978Z" fill="#10101A"/>
<path d="M277.27 108.88C290.53 108.88 301.28 98.1305 301.28 84.8701C301.28 71.6098 290.53 60.8601 277.27 60.8601C264.01 60.8601 253.26 71.6098 253.26 84.8701C253.26 98.1305 264.01 108.88 277.27 108.88Z" fill="#10101A"/>
<path d="M272.922 80.167C281.284 79.158 287.245 71.5617 286.236 63.2C285.227 54.8383 277.63 48.8777 269.269 49.8866C260.907 50.8955 254.946 58.4919 255.955 66.8536C256.964 75.2153 264.561 81.1759 272.922 80.167Z" fill="#10101A"/>
<path d="M228.49 129.49L200.71 164.04C189.58 177.89 167.59 174.28 161.47 157.6L141.91 104.31C139.71 98.31 143.03 91.71 149.16 89.9L162.65 85.93L183.93 123.84L197.45 103.93C206.82 93.46 218.22 84.99 230.95 79.05L231.07 78.99L228.48 129.49H228.49Z" fill="white"/>
<path d="M183.03 173.58C181.71 173.58 180.38 173.47 179.05 173.25C170.46 171.84 163.53 166.12 160.53 157.94L140.97 104.65C139.81 101.49 140 98.09 141.52 95.08C143.03 92.07 145.65 89.89 148.88 88.94L162.37 84.97C162.82 84.84 163.3 85.03 163.52 85.44L184.01 121.94L196.63 103.36C196.63 103.36 196.68 103.29 196.71 103.25C206.22 92.62 217.6 84.16 230.54 78.13L230.67 78.07C231.17 77.84 231.77 78.06 232 78.56C232.23 79.06 232.01 79.66 231.51 79.89L231.39 79.95C218.73 85.86 207.58 94.13 198.26 104.54L184.77 124.4C184.58 124.69 184.27 124.85 183.9 124.84C183.55 124.83 183.24 124.63 183.07 124.33L162.18 87.11L149.46 90.86C146.76 91.65 144.59 93.47 143.32 95.98C142.06 98.49 141.89 101.32 142.86 103.96L162.42 157.25C165.17 164.74 171.51 169.98 179.39 171.28C187.26 172.57 194.95 169.63 199.95 163.41L227.73 128.86C228.08 128.43 228.7 128.36 229.14 128.71C229.57 129.06 229.64 129.69 229.29 130.12L201.51 164.67C196.9 170.4 190.2 173.59 183.05 173.59L183.03 173.58Z" fill="#10101A"/>
<path d="M176.69 138.26C176.53 138.26 176.37 138.22 176.23 138.14C175.74 137.88 175.55 137.28 175.81 136.79L188.76 112.19C189.02 111.7 189.62 111.51 190.11 111.77C190.6 112.03 190.79 112.63 190.53 113.12L177.58 137.72C177.4 138.06 177.05 138.25 176.69 138.25V138.26Z" fill="#10101A"/>
<path d="M160.28 86.32L157.37 67.51C157.04 65.54 155.63 63.93 153.73 63.32C150.46 62.28 147.07 64.56 146.8 67.98L146.03 77.69L128.76 58.7L125.23 65.75C124.14 67.93 123.52 70.3099 123.41 72.75C123.24 76.45 124.64 80.04 127.25 82.66L142.01 95.9L160.27 86.32H160.28Z" fill="white"/>
<path d="M142.03 96.8999C141.79 96.8999 141.55 96.8099 141.36 96.6399L126.6 83.3999C123.75 80.5499 122.24 76.6699 122.43 72.6999C122.55 70.1099 123.2 67.6199 124.36 65.2999L127.89 58.2499C128.04 57.9599 128.32 57.7499 128.65 57.7099C128.98 57.6599 129.3 57.7799 129.53 58.0299L145.24 75.3099L145.82 67.9099C145.97 65.9699 146.99 64.2399 148.6 63.1499C150.21 62.0599 152.2 61.7799 154.05 62.3699C156.32 63.0899 157.97 64.9999 158.37 67.3399L161.28 86.1699C161.35 86.5899 161.13 87.0099 160.76 87.2099L142.5 96.7899C142.35 96.8699 142.19 96.8999 142.04 96.8999H142.03ZM129.01 60.4499L126.14 66.1999C125.11 68.2699 124.53 70.4899 124.42 72.7999C124.26 76.2099 125.56 79.5499 127.97 81.9599L142.17 94.6999L159.18 85.7799L156.38 67.6699C156.11 66.0799 154.98 64.7799 153.43 64.2799C152.16 63.8799 150.8 64.0699 149.7 64.8099C148.6 65.5499 147.9 66.7399 147.8 68.0599L147.03 77.7699C147 78.1699 146.73 78.5099 146.36 78.6399C145.99 78.7699 145.57 78.6599 145.3 78.3699L129.02 60.4599L129.01 60.4499Z" fill="#10101A"/>
<path d="M129.2 77.8299C128.79 77.8299 128.4 77.5799 128.26 77.1699L124.3 66.0899C124.11 65.5699 124.38 64.9999 124.9 64.8099C125.42 64.6199 125.99 64.8999 126.18 65.4199L130.14 76.4999C130.33 77.0199 130.06 77.5899 129.54 77.7799C129.43 77.8199 129.31 77.8399 129.2 77.8399V77.8299Z" fill="#10101A"/>
<path d="M145.61 162C145.26 162 144.92 161.82 144.74 161.5L126.6 129.66C126.33 129.18 126.49 128.57 126.97 128.3C127.45 128.02 128.06 128.19 128.33 128.67L146.47 160.51C146.74 160.99 146.58 161.6 146.1 161.87C145.94 161.96 145.77 162 145.61 162Z" fill="white"/>
</g>
<defs>
<clipPath id="clip0_2168_67">
<rect width="301.28" height="211.71" fill="white"/>
</clipPath>
</defs>
</svg>
