<?xml version="1.0" encoding="UTF-8"?>
<svg id="_레이어_2" data-name="레이어_2" xmlns="http://www.w3.org/2000/svg" viewBox="0 0 177.2 177.2">
  <defs>
    <style>
      .cls-1 {
        fill: #ebb8b8;
      }
    </style>
  </defs>
  <g id="TEXTS">
    <g>
      <path class="cls-1" d="M43.34,74.95h-6.32v27.3h4.29v-10.26h2.03c4.29,0,6.4-2.38,6.4-6.75v-3.55c0-4.37-2.11-6.75-6.4-6.75ZM45.44,85.52c0,1.95-.74,2.57-2.11,2.57h-2.03v-9.24h2.03c1.37,0,2.11.62,2.11,2.57v4.1Z"/>
      <path class="cls-1" d="M64.79,94.72c0-2.85-.7-4.88-2.85-5.77v-.08c1.91-.9,2.81-2.69,2.81-5.5v-2.14c0-4.21-1.91-6.28-6.36-6.28h-6.47v27.3h4.29v-11.12h1.48c1.95,0,2.81.94,2.81,3.47v4.29c0,2.22.16,2.65.39,3.35h4.37c-.43-1.01-.47-1.99-.47-3.32v-4.21ZM60.46,84.35c0,2.18-.98,2.89-2.57,2.89h-1.68v-8.39h2.07c1.52,0,2.18.86,2.18,2.81v2.69Z"/>
      <polygon class="cls-1" points="67.79 102.25 79.49 102.25 79.49 98.35 72.08 98.35 72.08 90.35 77.97 90.35 77.97 86.45 72.08 86.45 72.08 78.85 79.49 78.85 79.49 74.95 67.79 74.95 67.79 102.25"/>
      <polygon class="cls-1" points="88.85 97.22 88.77 97.22 85.54 74.95 81.21 74.95 85.42 102.25 91.82 102.25 96.03 74.95 92.09 74.95 88.85 97.22"/>
      <rect class="cls-1" x="98.21" y="74.95" width="4.29" height="27.3"/>
      <polygon class="cls-1" points="105.82 102.25 117.52 102.25 117.52 98.35 110.11 98.35 110.11 90.35 116 90.35 116 86.45 110.11 86.45 110.11 78.85 117.52 78.85 117.52 74.95 105.82 74.95 105.82 102.25"/>
      <polygon class="cls-1" points="125.9 96.48 125.82 96.48 123.56 74.95 119.39 74.95 122.43 102.25 128.32 102.25 129.84 87.7 129.92 87.7 131.44 102.25 137.13 102.25 140.18 74.95 136.43 74.95 134.25 96.63 134.17 96.63 132.06 74.95 127.93 74.95 125.9 96.48"/>
      <path class="cls-1" d="M44.95,151.47l-.88,1.32c-.64.96-.6,1.59.15,2.09l1.01.68,2.75-4.11-.82-.55c-.78-.52-1.49-.5-2.21.57Z"/>
      <path class="cls-1" d="M101,160.8l1.11-.19-.82-4.88-1.43.24c-.84.14-1.23.6-1.03,1.78l.23,1.38c.25,1.47.8,1.85,1.93,1.66Z"/>
      <path class="cls-1" d="M53.69,155.95l-1.07,2.16c-.51,1.03-.28,1.55.44,1.91l1.07.53,2.42-4.89-1.07-.53c-.72-.36-1.28-.22-1.79.81Z"/>
      <path class="cls-1" d="M16.59,60.59l-.84-.31c-1.08-.4-1.69-.21-2,.63l-.42,1.14,3.99,1.47.34-.93c.33-.88.14-1.57-1.07-2.01Z"/>
      <path class="cls-1" d="M164.54,85.32l2.41-.15c1.15-.07,1.49-.53,1.44-1.33l-.07-1.19-5.44.34.07,1.19c.05.8.44,1.22,1.59,1.15Z"/>
      <path class="cls-1" d="M47.64,24.66l-1.35-2c-.64-.95-1.21-1.02-1.88-.57l-.99.67,3.04,4.52.99-.67c.67-.45.83-1,.18-1.95Z"/>
      <path class="cls-1" d="M101.52,163.05c-.93.16-1.43.66-1.21,1.93l.15.88c.19,1.13.66,1.57,1.54,1.42l1.2-.2-.71-4.19-.97.16Z"/>
      <path class="cls-1" d="M149.17,40.41l.69-.57c.89-.73,1.03-1.36.46-2.05l-.78-.94-3.28,2.71.63.76c.6.73,1.29.91,2.28.09Z"/>
      <path class="cls-1" d="M55.9,19.28l-.7-1.42c-.51-1.03-1.08-1.31-1.89-.91l-1.09.54,2.19,4.43.89-.44c.84-.42,1.18-1.04.6-2.2Z"/>
      <path class="cls-1" d="M143.65,45.29l1.08-.89c1.15-.95,1.2-1.62.47-2.5l-.72-.87-3.82,3.15.92,1.12c.54.66,1.14.76,2.06,0Z"/>
      <path class="cls-1" d="M23.59,62.9l-1.32-.49c-1.4-.52-2-.22-2.4.85l-.39,1.06,4.64,1.71.5-1.36c.29-.8.09-1.37-1.04-1.78Z"/>
      <path class="cls-1" d="M88.6,0C39.67,0,0,39.67,0,88.6s39.67,88.6,88.6,88.6,88.6-39.67,88.6-88.6S137.53,0,88.6,0ZM170.68,83.7c.16,2.52-1.17,3.85-3.74,4.01l-2.09.13c-2.57.16-4.05-.99-4.2-3.52l-.07-1.19-6.04.37-.16-2.52,16.06-.99.23,3.72ZM169.28,72.19l-2.23.55-1.05-4.24-4.35,1.08.84,3.37-2.23.55-.84-3.37-4.58,1.14,1.05,4.24-2.23.55-1.66-6.7,15.63-3.88,1.66,6.7ZM166.79,62.73l-2.15.83-.95-2.47-12.88,4.95-.91-2.36,12.88-4.95-.95-2.47,2.15-.83,2.81,7.3ZM162.85,53.18l-14.42,7.16-1.12-2.27,14.42-7.16,1.12,2.27ZM158.59,45.03c1.3,2.09.72,3.94-1.46,5.3l-.43.27-1.27-2.03.57-.35c.98-.61,1.1-1.23.68-1.91s-1.04-.84-2.02-.23c-1,.62-1.47,1.51-1.82,3.69-.46,2.78-1.24,4.05-2.8,5.03-2.19,1.36-4.12,1.05-5.43-1.06-1.32-2.11-.75-3.98,1.44-5.34l.84-.52,1.27,2.03-.98.61c-.98.61-1.06,1.26-.63,1.94.43.68,1.04.89,2.02.28,1-.62,1.47-1.51,1.82-3.69.46-2.78,1.24-4.05,2.8-5.03,2.19-1.36,4.1-1.07,5.41,1.02ZM147.08,88.6c0,32.3-26.18,58.48-58.48,58.48s-58.48-26.18-58.48-58.48,26.18-58.48,58.48-58.48,58.48,26.18,58.48,58.48ZM152.14,36.38c1.67,2.02,1.44,3.67-.47,5.25l-.44.37c-1.28,1.05-2.4,1.32-3.52.79l-.04.03c.46,1.38-.13,2.55-1.44,3.64l-1.01.83c-1.92,1.58-3.78,1.42-5.39-.53l-2.53-3.07,12.42-10.24,2.43,2.95ZM147.35,30.94l-1.57,1.68-3.19-2.98-3.06,3.28,2.54,2.37-1.57,1.68-2.54-2.37-3.22,3.45,3.19,2.98-1.57,1.68-5.04-4.71,10.99-11.77,5.04,4.71ZM129.61,17.06l2.04,1.38-6.01,11.26.04.03,8.11-9.84,2.02,1.37-6.14,11.28.04.03,8.24-9.87,1.83,1.24-10.51,12.32-2.78-1.88,4.07-7.61-.04-.03-5.55,6.6-2.88-1.95,7.54-14.34ZM112.57,18.32c.64-1.65,2.49-2.46,4.14-1.82,1.65.64,2.46,2.49,1.82,4.14-.64,1.65-2.49,2.46-4.14,1.82-1.65-.64-2.46-2.49-1.82-4.14ZM95.26,6.43l2.43.38-.62,12.75h.05s3.12-12.36,3.12-12.36l2.41.37-.72,12.83h.05s3.22-12.44,3.22-12.44l2.18.34-4.23,15.64-3.32-.51.42-8.62h-.05s-2.2,8.34-2.2,8.34l-3.43-.53.68-16.19ZM91.96,6.37l.02,2.3-4.37.05.05,4.48,3.47-.04.02,2.3-3.47.04.05,4.71,4.37-.05.02,2.3-6.9.07-.17-16.1,6.9-.07ZM81.94,6.67l1.55,16.02-2.52.24-1.55-16.02,2.52-.24ZM70.68,8.36l4.45,12.5h.04s-.71-13.26-.71-13.26l2.28-.46.73,16.27-3.7.74-5.6-15.3,2.5-.5ZM65.51,9.65l.74,2.18-4.13,1.41,1.45,4.24,3.29-1.12.74,2.18-3.29,1.12,1.52,4.46,4.13-1.41.74,2.18-6.53,2.23-5.2-15.23,6.53-2.23ZM52.35,14.86c2.35-1.16,3.9-.57,5,1.66l.56,1.13c.74,1.48.73,2.67-.04,3.64l.02.04c1.37-.09,2.27.8,3.02,2.31l1.1,2.23c.35.7.62,1.21,1.12,1.63l-2.31,1.14c-.31-.31-.5-.5-1.08-1.67l-1.12-2.27c-.66-1.34-1.36-1.61-2.39-1.1l-.78.39,2.91,5.88-2.27,1.12-7.15-14.43,3.42-1.69ZM43.13,20.18c2.1-1.41,3.91-.94,5.35,1.2l1.17,1.74c1.44,2.14,1.19,4-.91,5.41l-.99.67,3.38,5.02-2.1,1.41-8.98-13.36,3.09-2.08ZM33.91,27.22l1.61,1.65-3.13,3.05,3.13,3.21,2.49-2.42,1.61,1.65-2.49,2.42,3.29,3.38,3.13-3.05,1.61,1.65-4.94,4.82-11.24-11.52,4.94-4.82ZM27.03,34.12l1.79,1.44-1.66,2.06,10.77,8.63-1.58,1.97-10.77-8.63-1.65,2.06-1.79-1.44,4.89-6.1ZM20.77,42.31l13.44,8.87-1.39,2.11-13.44-8.87,1.39-2.11ZM15.87,50.1c1.15-2.18,3.04-2.61,5.32-1.4l.45.24-1.12,2.12-.59-.31c-1.02-.54-1.62-.33-1.99.38-.38.71-.21,1.32.81,1.86,1.04.55,2.05.51,4.1-.28,2.64-1,4.13-.97,5.75-.11,2.28,1.2,2.98,3.03,1.82,5.23-1.16,2.2-3.06,2.65-5.34,1.45l-.88-.46,1.12-2.12,1.02.54c1.02.54,1.62.28,2-.43s.25-1.35-.77-1.89c-1.04-.55-2.05-.51-4.1.28-2.64,1-4.13.97-5.75.11-2.28-1.2-2.99-3.01-1.84-5.19ZM11.62,60.05c.91-2.46,2.44-3.09,4.77-2.23l.54.2c1.55.57,2.35,1.41,2.46,2.65l.04.02c.97-1.09,2.27-1.17,3.87-.58l1.23.45c2.33.86,3.13,2.55,2.25,4.93l-1.38,3.73-15.1-5.58,1.32-3.58ZM9.34,66.91l2.24.51-.96,4.26,4.37.99.76-3.39,2.24.51-.76,3.39,4.6,1.04.96-4.26,2.24.51-1.52,6.73-15.7-3.55,1.52-6.73ZM6.47,86.82l12.75-.51v-.05s-12.59-2.02-12.59-2.02l.16-2.43,12.84-.41v-.04s-12.67-2.12-12.67-2.12l.14-2.2,15.95,2.84-.22,3.35-8.62.34v.05s8.5,1.45,8.5,1.45l-.23,3.46-16.18.74.16-2.46ZM15.89,102.82c-1.75.27-3.37-.93-3.64-2.68s.93-3.37,2.68-3.64c1.75-.27,3.37.93,3.64,2.68.27,1.75-.93,3.37-2.68,3.64ZM13.29,121.43l11.37-5.8-.02-.04-12.28,3.44-.88-2.28,11.49-5.75-.02-.04-12.4,3.39-.79-2.06,15.67-4.1,1.21,3.13-7.69,3.92.02.04,8.33-2.24,1.25,3.24-14.38,7.45-.88-2.3ZM15.73,126.51l1.99-1.15,2.19,3.78,3.88-2.24-1.74-3.01,1.99-1.15,1.74,3.01,4.08-2.36-2.19-3.78,1.99-1.15,3.45,5.97-13.94,8.05-3.45-5.97ZM21.04,135.18l13.11-9.35,1.47,2.06-13.11,9.35-1.47-2.06ZM28.12,144.08l8.61-10.1-.03-.03-11.13,7.23-1.53-1.75,13.74-8.75,2.49,2.83-10.46,12.48-1.68-1.92ZM31.79,147.91l1.52-1.73,3.28,2.88,2.96-3.37-2.61-2.29,1.52-1.73,2.61,2.29,3.11-3.54-3.28-2.88,1.52-1.73,5.18,4.55-10.63,12.09-5.18-4.55ZM42.88,156.75c-2.18-1.46-2.44-3.1-1.05-5.16l.7-1.05c.92-1.38,1.95-1.96,3.18-1.77l.03-.04c-.76-1.14-.43-2.37.5-3.76l1.38-2.06c.43-.65.74-1.14.86-1.78l2.14,1.43c-.12.42-.18.68-.91,1.77l-1.41,2.1c-.83,1.24-.72,1.98.24,2.62l.73.49,3.65-5.44,2.1,1.41-8.96,13.37-3.17-2.12ZM55.38,163.74l-3.34-1.65c-2.27-1.12-2.76-2.93-1.62-5.24l.93-1.88c1.14-2.31,2.88-3.02,5.14-1.9l1.07.53,2.68-5.42,2.27,1.12-7.14,14.43ZM62.73,166.59l.63-2.21,4.2,1.19,1.23-4.31-3.34-.95.63-2.21,3.34.95,1.29-4.54-4.2-1.19.63-2.21,6.64,1.89-4.4,15.49-6.64-1.89ZM79.92,170.33l-7.73-1.19.35-2.27,2.61.4,2.11-13.64,2.5.39-2.11,13.64,2.61.4-.35,2.27ZM84.95,170.62l-2.53-.15.96-16.08,2.53.15-.96,16.08ZM91.59,170.82c-2.46.09-3.77-1.34-3.86-3.91l-.02-.5,2.39-.08.02.67c.04,1.15.51,1.57,1.32,1.54s1.25-.48,1.21-1.63c-.04-1.17-.58-2.03-2.28-3.42-2.18-1.79-2.89-3.1-2.96-4.93-.09-2.57,1.14-4.09,3.63-4.18,2.48-.09,3.82,1.34,3.91,3.91l.04.99-2.39.08-.04-1.15c-.04-1.15-.56-1.54-1.37-1.52-.8.03-1.29.46-1.25,1.61.04,1.17.58,2.03,2.28,3.42,2.18,1.79,2.89,3.1,2.96,4.93.09,2.57-1.12,4.09-3.58,4.18ZM102.31,169.56c-2.58.43-3.9-.58-4.31-3.03l-.1-.57c-.27-1.63.05-2.74,1.08-3.45v-.05c-1.43-.3-2.15-1.39-2.44-3.07l-.22-1.29c-.41-2.45.66-3.98,3.15-4.4l3.92-.66,2.67,15.87-3.76.63ZM109.42,168.13l-.68-2.2,4.18-1.28-1.32-4.29-3.32,1.02-.68-2.2,3.32-1.02-1.39-4.51-4.18,1.28-.68-2.2,6.6-2.03,4.73,15.39-6.6,2.03ZM128.12,160.71l-6.79-10.81-.04.02,4.52,11.92-2.19,1.07-6.75-10.93-.04.02,4.48,12.05-1.98.97-5.48-15.24,3.01-1.48,4.58,7.3.04-.02-2.97-8.1,3.12-1.53,8.7,13.66-2.21,1.08ZM136.76,149.06c-1.39,1.1-3.39.87-4.49-.51-1.1-1.39-.87-3.39.51-4.49,1.39-1.1,3.39-.87,4.49.51,1.1,1.39.87,3.39-.51,4.49ZM154.71,137.56l-10.69-6.98-.03.04,9.09,8.95-1.54,1.89-10.7-7.11-.03.04,9.1,9.08-1.39,1.71-11.35-11.56,2.12-2.6,7.22,4.72.03-.04-6.09-6.11,2.19-2.69,13.62,8.78-1.55,1.91ZM157.92,132.92l-1.99-1.16,2.2-3.78-3.88-2.25-1.75,3-1.99-1.16,1.75-3-4.08-2.37-2.2,3.78-1.99-1.16,3.47-5.96,13.92,8.1-3.47,5.96ZM162.8,124.02l-14.62-6.73,1.06-2.3,14.62,6.73-1.06,2.3ZM167.01,113.42l-13.04-2.45v.04s11.79,6.06,11.79,6.06l-.75,2.2-14.43-7.56,1.22-3.57,16.04,2.86-.83,2.42ZM168.51,108.32l-2.26-.45.86-4.29-4.4-.88-.68,3.41-2.25-.45.68-3.41-4.62-.93-.86,4.29-2.26-.45,1.36-6.77,15.79,3.17-1.36,6.77ZM166.68,97.81l-1.26-.09c-1.65-.11-2.67-.71-3.12-1.87h-.05c-.62,1.22-1.84,1.55-3.51,1.44l-2.48-.17c-.78-.05-1.36-.07-1.97.14l.18-2.57c.42-.11.68-.18,1.99-.09l2.52.17c1.49.1,2.08-.36,2.16-1.51l.06-.87-6.54-.45.17-2.52,16.06,1.1-.26,3.81c-.18,2.62-1.47,3.66-3.95,3.49Z"/>
      <path class="cls-1" d="M163.42,93.53c-.06.94.31,1.54,1.59,1.63l1.58.11c1.15.08,1.68-.28,1.74-1.17l.08-1.22-4.93-.34-.07.99Z"/>
    </g>
  </g>
</svg>